<?xml version="1.0" standalone="no"?>
<!DOCTYPE svg PUBLIC "-//W3C//DTD SVG 20010904//EN"
 "http://www.w3.org/TR/2001/REC-SVG-20010904/DTD/svg10.dtd">
<svg version="1.0" xmlns="http://www.w3.org/2000/svg"
 width="500.000000pt" height="500.000000pt" viewBox="0 0 500.000000 500.000000"
 preserveAspectRatio="xMidYMid meet">
<metadata>
Created by potrace 1.14, written by Peter Selinger 2001-2017
</metadata>
<g transform="translate(0.000000,500.000000) scale(0.100000,-0.100000)"
fill="#000000" stroke="none">
<path d="M2315 4994 c-16 -2 -73 -9 -125 -15 -433 -49 -871 -232 -1240 -517
-109 -85 -327 -303 -412 -412 -286 -370 -453 -770 -520 -1245 -7 -50 -13 -185
-13 -305 0 -352 54 -632 181 -945 127 -310 305 -577 549 -820 399 -400 878
-635 1460 -717 117 -17 493 -17 610 0 475 67 875 234 1245 520 109 85 327 303
412 412 286 370 453 770 520 1245 17 117 17 493 0 610 -67 475 -234 875 -520
1245 -85 109 -303 327 -412 412 -365 282 -765 451 -1230 518 -77 11 -451 22
-505 14z m-9 -1024 c-54 -78 -70 -138 -63 -239 5 -95 37 -195 92 -296 31 -57
35 -85 14 -85 -15 0 -85 155 -108 240 -25 88 -27 196 -6 266 8 28 33 76 55
107 51 70 63 76 16 7z m1300 -242 c20 -39 17 -133 -8 -211 -20 -63 -26 -72
-92 -126 -39 -32 -113 -86 -165 -120 -51 -33 -87 -61 -80 -61 14 0 166 35 203
46 23 8 9 -18 -122 -224 -141 -222 -171 -247 -517 -424 -93 -48 -167 -87 -164
-88 7 0 249 98 378 154 61 27 80 32 69 19 -9 -10 -58 -81 -109 -158 -75 -113
-120 -167 -233 -282 l-141 -141 -155 -74 c-85 -41 -175 -84 -200 -96 -44 -21
-44 -21 -10 -15 19 3 79 18 133 33 91 25 96 26 80 7 -10 -10 -61 -52 -113 -91
-103 -78 -244 -155 -328 -180 l-53 -15 7 22 c17 56 123 296 189 427 194 383
419 699 715 1005 114 118 128 134 63 77 -297 -264 -604 -652 -833 -1051 -76
-132 -253 -506 -373 -787 -31 -71 -67 -154 -81 -184 -14 -30 -26 -60 -26 -67
0 -7 14 -25 31 -41 l31 -29 -58 -33 c-33 -18 -87 -52 -121 -77 -35 -24 -63
-41 -63 -38 0 4 32 75 71 158 39 84 123 276 186 427 102 246 117 290 143 420
60 300 174 597 313 815 l19 30 -6 -40 c-5 -30 1 -21 24 38 58 155 280 414 530
617 46 37 52 40 37 18 -44 -71 -50 -83 -21 -48 74 90 135 146 219 197 121 76
348 185 470 228 l99 34 24 -22 c13 -12 30 -34 38 -49z m-458 -1505 c95 -206
126 -327 120 -466 -3 -78 -8 -100 -33 -146 -105 -191 -416 -228 -890 -104 -55
14 -104 28 -108 30 -4 3 4 14 19 25 l26 21 113 -27 c167 -39 295 -56 425 -56
189 0 296 40 354 133 67 109 40 307 -78 561 -34 74 -35 80 -20 98 10 10 20 18
24 18 4 0 25 -39 48 -87z m-1666 -408 c-4 -21 -10 -25 -43 -25 -57 0 -177 -28
-234 -54 -120 -55 -175 -139 -175 -269 0 -109 23 -191 96 -337 35 -69 54 -114
43 -100 -35 46 -138 264 -155 330 -11 43 -15 90 -12 140 8 129 69 216 193 275
59 28 202 63 261 64 28 1 31 -2 26 -24z"/>
<path d="M1605 1070 c-4 -7 -3 -16 3 -22 14 -14 45 -2 40 15 -6 16 -34 21 -43
7z"/>
</g>
</svg>
